<svg width="547" height="100" viewBox="0 0 547 100" fill="none" xmlns="http://www.w3.org/2000/svg">
<path d="M98.6413 39.8152C98.6413 61.8046 68.2778 89.5304 54.3612 99C31.5886 85.2261 10.0811 61.8046 10.0811 39.8152C10.0811 17.8259 29.906 0 54.3612 0C78.8164 0 98.6413 17.8259 98.6413 39.8152Z" fill="#0C6EC8"/>
<ellipse cx="54.3612" cy="25.6109" rx="19.6097" ry="12.6978" fill="#3190E7"/>
<path d="M54.3612 98.1391C54.3612 98.1391 86.3218 97.7087 87.587 89.9609C88.8521 82.213 -5.58778 64.9957 2.49026 56.8174C10.5683 48.6391 123.312 37.8783 94.2133 22.3826" stroke="black" stroke-width="3"/>
<path d="M130.071 56.0156C130.071 55.1855 129.941 54.4531 129.681 53.8184C129.437 53.1673 128.997 52.5814 128.362 52.0605C127.744 51.5397 126.881 51.0433 125.774 50.5713C124.684 50.0993 123.3 49.6191 121.624 49.1309C119.866 48.61 118.279 48.0322 116.863 47.3975C115.447 46.7464 114.235 46.0059 113.226 45.1758C112.216 44.3457 111.443 43.3936 110.906 42.3193C110.369 41.2451 110.101 40.0163 110.101 38.6328C110.101 37.2493 110.385 35.9717 110.955 34.7998C111.525 33.6279 112.339 32.6107 113.396 31.748C114.471 30.8691 115.748 30.1855 117.229 29.6973C118.711 29.209 120.363 28.9648 122.186 28.9648C124.855 28.9648 127.117 29.4775 128.973 30.5029C130.844 31.512 132.269 32.8385 133.245 34.4824C134.222 36.11 134.71 37.8516 134.71 39.707H130.022C130.022 38.3724 129.738 37.1924 129.168 36.167C128.598 35.1253 127.736 34.3115 126.58 33.7256C125.424 33.1234 123.96 32.8223 122.186 32.8223C120.509 32.8223 119.126 33.0745 118.035 33.5791C116.945 34.0837 116.131 34.7673 115.594 35.6299C115.073 36.4925 114.812 37.4772 114.812 38.584C114.812 39.3327 114.967 40.0163 115.276 40.6348C115.602 41.237 116.098 41.7985 116.766 42.3193C117.449 42.8402 118.312 43.3203 119.354 43.7598C120.411 44.1992 121.673 44.6224 123.138 45.0293C125.156 45.599 126.897 46.2337 128.362 46.9336C129.827 47.6335 131.032 48.4229 131.976 49.3018C132.936 50.1644 133.644 51.1491 134.1 52.2559C134.572 53.3464 134.808 54.5833 134.808 55.9668C134.808 57.4154 134.515 58.7256 133.929 59.8975C133.343 61.0693 132.505 62.0703 131.414 62.9004C130.324 63.7305 129.013 64.3734 127.483 64.8291C125.97 65.2686 124.277 65.4883 122.405 65.4883C120.761 65.4883 119.142 65.2604 117.547 64.8047C115.968 64.349 114.528 63.6654 113.226 62.7539C111.94 61.8424 110.906 60.7194 110.125 59.3848C109.36 58.0339 108.978 56.4714 108.978 54.6973H113.665C113.665 55.918 113.901 56.9678 114.373 57.8467C114.845 58.7093 115.488 59.4255 116.302 59.9951C117.132 60.5648 118.068 60.988 119.109 61.2646C120.167 61.5251 121.266 61.6553 122.405 61.6553C124.049 61.6553 125.441 61.4274 126.58 60.9717C127.719 60.516 128.582 59.8649 129.168 59.0186C129.77 58.1722 130.071 57.1712 130.071 56.0156ZM153.948 29.4531V65H149.31V29.4531H153.948ZM165.374 29.4531V33.3105H137.908V29.4531H165.374ZM193.23 61.167V65H174.407V61.167H193.23ZM175.359 29.4531V65H170.647V29.4531H175.359ZM190.74 44.7363V48.5693H174.407V44.7363H190.74ZM192.986 29.4531V33.3105H174.407V29.4531H192.986ZM200.555 29.4531H205.12L216.766 58.4326L228.387 29.4531H232.977L218.523 65H214.959L200.555 29.4531ZM199.065 29.4531H203.094L203.753 51.1328V65H199.065V29.4531ZM230.413 29.4531H234.441V65H229.754V51.1328L230.413 29.4531ZM242.718 29.4531H254.485C257.155 29.4531 259.409 29.86 261.248 30.6738C263.104 31.4876 264.511 32.6921 265.472 34.2871C266.448 35.8659 266.937 37.8109 266.937 40.1221C266.937 41.7497 266.603 43.2389 265.936 44.5898C265.285 45.9245 264.34 47.0638 263.104 48.0078C261.883 48.9355 260.418 49.6273 258.709 50.083L257.391 50.5957H246.331L246.282 46.7627H254.632C256.325 46.7627 257.732 46.4697 258.855 45.8838C259.979 45.2816 260.825 44.4759 261.395 43.4668C261.964 42.4577 262.249 41.3428 262.249 40.1221C262.249 38.7549 261.98 37.5586 261.443 36.5332C260.906 35.5078 260.06 34.7184 258.904 34.165C257.765 33.5954 256.292 33.3105 254.485 33.3105H247.43V65H242.718V29.4531ZM263.494 65L254.852 48.8867L259.759 48.8623L268.523 64.707V65H263.494ZM271.648 52.085V51.5234C271.648 49.6191 271.925 47.8532 272.479 46.2256C273.032 44.5817 273.829 43.1576 274.871 41.9531C275.913 40.7324 277.174 39.7884 278.655 39.1211C280.136 38.4375 281.797 38.0957 283.636 38.0957C285.491 38.0957 287.16 38.4375 288.641 39.1211C290.138 39.7884 291.408 40.7324 292.449 41.9531C293.507 43.1576 294.313 44.5817 294.866 46.2256C295.42 47.8532 295.696 49.6191 295.696 51.5234V52.085C295.696 53.9893 295.42 55.7552 294.866 57.3828C294.313 59.0104 293.507 60.4346 292.449 61.6553C291.408 62.8597 290.146 63.8037 288.665 64.4873C287.2 65.1546 285.54 65.4883 283.685 65.4883C281.829 65.4883 280.161 65.1546 278.68 64.4873C277.199 63.8037 275.929 62.8597 274.871 61.6553C273.829 60.4346 273.032 59.0104 272.479 57.3828C271.925 55.7552 271.648 53.9893 271.648 52.085ZM276.165 51.5234V52.085C276.165 53.4033 276.32 54.6484 276.629 55.8203C276.938 56.9759 277.402 58.0013 278.021 58.8965C278.655 59.7917 279.445 60.4997 280.389 61.0205C281.333 61.5251 282.431 61.7773 283.685 61.7773C284.922 61.7773 286.004 61.5251 286.932 61.0205C287.876 60.4997 288.657 59.7917 289.275 58.8965C289.894 58.0013 290.358 56.9759 290.667 55.8203C290.993 54.6484 291.155 53.4033 291.155 52.085V51.5234C291.155 50.2214 290.993 48.9925 290.667 47.8369C290.358 46.665 289.886 45.6315 289.251 44.7363C288.632 43.8249 287.851 43.1087 286.907 42.5879C285.979 42.0671 284.889 41.8066 283.636 41.8066C282.399 41.8066 281.308 42.0671 280.364 42.5879C279.437 43.1087 278.655 43.8249 278.021 44.7363C277.402 45.6315 276.938 46.665 276.629 47.8369C276.32 48.9925 276.165 50.2214 276.165 51.5234ZM316.937 60.4834V46.8848C316.937 45.8431 316.725 44.9398 316.302 44.1748C315.895 43.3936 315.276 42.7913 314.446 42.3682C313.616 41.945 312.591 41.7334 311.37 41.7334C310.231 41.7334 309.23 41.9287 308.367 42.3193C307.521 42.71 306.854 43.2227 306.365 43.8574C305.893 44.4922 305.657 45.1758 305.657 45.9082H301.141C301.141 44.9642 301.385 44.0283 301.873 43.1006C302.361 42.1729 303.061 41.3346 303.973 40.5859C304.9 39.821 306.007 39.2188 307.293 38.7793C308.595 38.3236 310.044 38.0957 311.639 38.0957C313.559 38.0957 315.252 38.4212 316.717 39.0723C318.198 39.7233 319.354 40.708 320.184 42.0264C321.03 43.3285 321.453 44.9642 321.453 46.9336V59.2383C321.453 60.1172 321.526 61.0531 321.673 62.0459C321.836 63.0387 322.072 63.8932 322.381 64.6094V65H317.669C317.441 64.4792 317.262 63.7874 317.132 62.9248C317.002 62.0459 316.937 61.2321 316.937 60.4834ZM317.718 48.9844L317.767 52.1582H313.201C311.915 52.1582 310.768 52.264 309.759 52.4756C308.75 52.6709 307.903 52.972 307.22 53.3789C306.536 53.7858 306.015 54.2985 305.657 54.917C305.299 55.5192 305.12 56.2272 305.12 57.041C305.12 57.8711 305.307 58.6279 305.682 59.3115C306.056 59.9951 306.618 60.5404 307.366 60.9473C308.131 61.3379 309.067 61.5332 310.174 61.5332C311.557 61.5332 312.778 61.2402 313.836 60.6543C314.894 60.0684 315.732 59.3522 316.351 58.5059C316.985 57.6595 317.327 56.8376 317.376 56.04L319.305 58.2129C319.191 58.8965 318.882 59.6533 318.377 60.4834C317.872 61.3135 317.197 62.111 316.351 62.876C315.521 63.6247 314.528 64.2513 313.372 64.7559C312.233 65.2441 310.947 65.4883 309.515 65.4883C307.724 65.4883 306.154 65.1383 304.803 64.4385C303.468 63.7386 302.426 62.8027 301.678 61.6309C300.945 60.4427 300.579 59.1162 300.579 57.6514C300.579 56.2354 300.856 54.9902 301.409 53.916C301.963 52.8255 302.76 51.9222 303.802 51.2061C304.843 50.4736 306.097 49.9202 307.562 49.5459C309.026 49.1715 310.662 48.9844 312.469 48.9844H317.718ZM345.208 59.873V27.5H349.749V65H345.599L345.208 59.873ZM327.435 52.085V51.5723C327.435 49.554 327.679 47.723 328.167 46.0791C328.672 44.4189 329.38 42.9948 330.291 41.8066C331.219 40.6185 332.317 39.707 333.587 39.0723C334.873 38.4212 336.305 38.0957 337.884 38.0957C339.544 38.0957 340.993 38.3887 342.229 38.9746C343.483 39.5443 344.541 40.3825 345.403 41.4893C346.282 42.5798 346.974 43.8981 347.479 45.4443C347.983 46.9906 348.333 48.7402 348.528 50.6934V52.9395C348.349 54.8763 347.999 56.6178 347.479 58.1641C346.974 59.7103 346.282 61.0286 345.403 62.1191C344.541 63.2096 343.483 64.0479 342.229 64.6338C340.976 65.2035 339.511 65.4883 337.835 65.4883C336.289 65.4883 334.873 65.1546 333.587 64.4873C332.317 63.82 331.219 62.8841 330.291 61.6797C329.38 60.4753 328.672 59.0592 328.167 57.4316C327.679 55.7878 327.435 54.0055 327.435 52.085ZM331.976 51.5723V52.085C331.976 53.4033 332.106 54.6403 332.366 55.7959C332.643 56.9515 333.066 57.9688 333.636 58.8477C334.205 59.7266 334.93 60.4183 335.809 60.9229C336.688 61.4111 337.737 61.6553 338.958 61.6553C340.455 61.6553 341.684 61.3379 342.645 60.7031C343.621 60.0684 344.402 59.2301 344.988 58.1885C345.574 57.1468 346.03 56.0156 346.355 54.7949V48.9111C346.16 48.016 345.875 47.1533 345.501 46.3232C345.143 45.4769 344.671 44.7282 344.085 44.0771C343.515 43.4098 342.807 42.8809 341.961 42.4902C341.131 42.0996 340.146 41.9043 339.007 41.9043C337.77 41.9043 336.704 42.1647 335.809 42.6855C334.93 43.1901 334.205 43.89 333.636 44.7852C333.066 45.6641 332.643 46.6895 332.366 47.8613C332.106 49.0169 331.976 50.2539 331.976 51.5723ZM361.272 43.833V65H356.731V38.584H361.028L361.272 43.833ZM360.345 50.791L358.245 50.7178C358.261 48.9111 358.497 47.2428 358.953 45.7129C359.409 44.1667 360.084 42.8239 360.979 41.6846C361.875 40.5452 362.99 39.6663 364.324 39.0479C365.659 38.4131 367.205 38.0957 368.963 38.0957C370.2 38.0957 371.339 38.2747 372.381 38.6328C373.423 38.9746 374.326 39.5199 375.091 40.2686C375.856 41.0173 376.45 41.9775 376.873 43.1494C377.296 44.3213 377.508 45.7373 377.508 47.3975V65H372.991V47.6172C372.991 46.2337 372.755 45.127 372.283 44.2969C371.827 43.4668 371.176 42.8646 370.33 42.4902C369.484 42.0996 368.491 41.9043 367.352 41.9043C366.017 41.9043 364.902 42.1403 364.007 42.6123C363.112 43.0843 362.396 43.7354 361.858 44.5654C361.321 45.3955 360.931 46.3477 360.687 47.4219C360.459 48.4798 360.345 49.6029 360.345 50.791ZM377.459 48.3008L374.432 49.2285C374.448 47.7799 374.684 46.3883 375.14 45.0537C375.612 43.7191 376.287 42.5309 377.166 41.4893C378.061 40.4476 379.16 39.6257 380.462 39.0234C381.764 38.4049 383.253 38.0957 384.93 38.0957C386.346 38.0957 387.599 38.2829 388.689 38.6572C389.796 39.0316 390.724 39.6094 391.473 40.3906C392.238 41.1556 392.815 42.1403 393.206 43.3447C393.597 44.5492 393.792 45.9814 393.792 47.6416V65H389.251V47.5928C389.251 46.1117 389.015 44.9642 388.543 44.1504C388.087 43.3203 387.436 42.7425 386.59 42.417C385.76 42.0752 384.767 41.9043 383.611 41.9043C382.618 41.9043 381.74 42.0752 380.975 42.417C380.21 42.7588 379.567 43.2308 379.046 43.833C378.525 44.4189 378.126 45.0944 377.85 45.8594C377.589 46.6243 377.459 47.4382 377.459 48.3008ZM416.204 60.4834V46.8848C416.204 45.8431 415.993 44.9398 415.569 44.1748C415.162 43.3936 414.544 42.7913 413.714 42.3682C412.884 41.945 411.858 41.7334 410.638 41.7334C409.498 41.7334 408.497 41.9287 407.635 42.3193C406.788 42.71 406.121 43.2227 405.633 43.8574C405.161 44.4922 404.925 45.1758 404.925 45.9082H400.408C400.408 44.9642 400.652 44.0283 401.141 43.1006C401.629 42.1729 402.329 41.3346 403.24 40.5859C404.168 39.821 405.275 39.2188 406.561 38.7793C407.863 38.3236 409.311 38.0957 410.906 38.0957C412.827 38.0957 414.52 38.4212 415.984 39.0723C417.465 39.7233 418.621 40.708 419.451 42.0264C420.298 43.3285 420.721 44.9642 420.721 46.9336V59.2383C420.721 60.1172 420.794 61.0531 420.94 62.0459C421.103 63.0387 421.339 63.8932 421.648 64.6094V65H416.937C416.709 64.4792 416.53 63.7874 416.399 62.9248C416.269 62.0459 416.204 61.2321 416.204 60.4834ZM416.985 48.9844L417.034 52.1582H412.469C411.183 52.1582 410.035 52.264 409.026 52.4756C408.017 52.6709 407.171 52.972 406.487 53.3789C405.804 53.7858 405.283 54.2985 404.925 54.917C404.567 55.5192 404.388 56.2272 404.388 57.041C404.388 57.8711 404.575 58.6279 404.949 59.3115C405.324 59.9951 405.885 60.5404 406.634 60.9473C407.399 61.3379 408.335 61.5332 409.441 61.5332C410.825 61.5332 412.046 61.2402 413.104 60.6543C414.161 60.0684 415 59.3522 415.618 58.5059C416.253 57.6595 416.595 56.8376 416.644 56.04L418.572 58.2129C418.458 58.8965 418.149 59.6533 417.645 60.4834C417.14 61.3135 416.465 62.111 415.618 62.876C414.788 63.6247 413.795 64.2513 412.64 64.7559C411.5 65.2441 410.215 65.4883 408.782 65.4883C406.992 65.4883 405.421 65.1383 404.07 64.4385C402.736 63.7386 401.694 62.8027 400.945 61.6309C400.213 60.4427 399.847 59.1162 399.847 57.6514C399.847 56.2354 400.123 54.9902 400.677 53.916C401.23 52.8255 402.028 51.9222 403.069 51.2061C404.111 50.4736 405.364 49.9202 406.829 49.5459C408.294 49.1715 409.93 48.9844 411.736 48.9844H416.985ZM432.342 43.6621V75.1562H427.801V38.584H431.951L432.342 43.6621ZM450.14 51.5723V52.085C450.14 54.0055 449.912 55.7878 449.456 57.4316C449 59.0592 448.333 60.4753 447.454 61.6797C446.591 62.8841 445.525 63.82 444.256 64.4873C442.986 65.1546 441.53 65.4883 439.886 65.4883C438.209 65.4883 436.728 65.2116 435.442 64.6582C434.157 64.1048 433.066 63.2992 432.171 62.2412C431.276 61.1833 430.56 59.9137 430.022 58.4326C429.502 56.9515 429.144 55.2832 428.948 53.4277V50.6934C429.144 48.7402 429.51 46.9906 430.047 45.4443C430.584 43.8981 431.292 42.5798 432.171 41.4893C433.066 40.3825 434.148 39.5443 435.418 38.9746C436.688 38.3887 438.152 38.0957 439.812 38.0957C441.473 38.0957 442.946 38.4212 444.231 39.0723C445.517 39.707 446.6 40.6185 447.479 41.8066C448.357 42.9948 449.017 44.4189 449.456 46.0791C449.912 47.723 450.14 49.554 450.14 51.5723ZM445.599 52.085V51.5723C445.599 50.2539 445.46 49.0169 445.184 47.8613C444.907 46.6895 444.476 45.6641 443.89 44.7852C443.32 43.89 442.588 43.1901 441.692 42.6855C440.797 42.1647 439.731 41.9043 438.494 41.9043C437.355 41.9043 436.362 42.0996 435.516 42.4902C434.686 42.8809 433.978 43.4098 433.392 44.0771C432.806 44.7282 432.326 45.4769 431.951 46.3232C431.593 47.1533 431.325 48.016 431.146 48.9111V55.2344C431.471 56.3737 431.927 57.4479 432.513 58.457C433.099 59.4499 433.88 60.2555 434.856 60.874C435.833 61.4762 437.062 61.7773 438.543 61.7773C439.764 61.7773 440.813 61.5251 441.692 61.0205C442.588 60.4997 443.32 59.7917 443.89 58.8965C444.476 58.0013 444.907 56.9759 445.184 55.8203C445.46 54.6484 445.599 53.4033 445.599 52.085Z" fill="#0C6EC8"/>
</svg>
