<svg width="71" height="70" viewBox="0 0 71 70" fill="none" xmlns="http://www.w3.org/2000/svg">
<rect x="1" y="0.999992" width="69" height="68" rx="34" fill="white"/>
<path d="M36.4161 5.08999L42.3243 19.7155L47.4453 33.01L36.4465 32.9497L36.4161 5.08999Z" fill="#258EEA"/>
<path d="M34.4163 5.07904L29.0756 19.6428L24.4477 32.8839L34.4467 32.9387L34.4163 5.07904Z" fill="#258EEA"/>
<path d="M31.4715 55.3897L27.7091 43.6005L24.4477 32.8839L31.447 32.9223L31.4715 55.3897Z" fill="#258EEA"/>
<path d="M40.4705 55.4391L44.2073 43.691L47.4453 33.01L40.4461 32.9716L40.4705 55.4391Z" fill="#258EEA"/>
<ellipse rx="3.99964" ry="3.5948" transform="matrix(0.999985 0.00548309 0.00108968 0.999999 35.4201 8.67931)" fill="#0B4664"/>
<rect width="8.99918" height="22.4675" transform="matrix(0.999985 0.00548309 0.00108968 0.999999 31.447 32.9223)" fill="#258EEA"/>
<ellipse rx="5.99946" ry="5.3922" transform="matrix(0.999985 0.00548309 0.00108968 0.999999 35.4456 32.0455)" fill="white"/>
<path d="M45.8208 57.7273L25.8281 58.0091L20.0456 46.854L51.0343 46.4172L45.8208 57.7273Z" fill="#0B4664"/>
<rect width="19.7957" height="6.29361" transform="matrix(-0.999616 0.0276969 -0.0421278 -0.999112 45.9739 63.7973)" fill="#0B4664"/>
</svg>
